<?xml version="1.0" encoding="utf-8"?>
<!-- Generator: Adobe Illustrator 25.4.1, SVG Export Plug-In . SVG Version: 6.00 Build 0)  -->
<svg version="1.1" id="Layer_1" xmlns="http://www.w3.org/2000/svg" xmlns:xlink="http://www.w3.org/1999/xlink" x="0px" y="0px"
	 viewBox="0 0 211 104" style="enable-background:new 0 0 211 104;" xml:space="preserve">
<style type="text/css">
	.st0{fill:#FFFFFF;}
	.st1{clip-path:url(#SVGID_00000148659339708386197010000010464807227722409646_);}
	.st2{fill:#405473;}
	.st3{fill:#2F5373;}
</style>
<g id="Layer_2_00000040558848709376575970000006108640099323759751_">
	<rect class="st0" width="211" height="101.8"/>
</g>
<g id="Layer_1_00000022541754967843111190000015524779748777867932_">
	<g>
		<g>
			<defs>
				<rect id="SVGID_1_" x="1" y="1" width="207" height="101"/>
			</defs>
			<clipPath id="SVGID_00000133495322911086806820000007847348931100840579_">
				<use xlink:href="#SVGID_1_"  style="overflow:visible;"/>
			</clipPath>
			<g style="clip-path:url(#SVGID_00000133495322911086806820000007847348931100840579_);">
				<path class="st2" d="M86.5,44h-81L46.3,0.8L86.5,44z M9,42.5h74L46.3,3L9,42.5z"/>
				<rect x="45.6" y="43" class="st2" width="0.5" height="15.8"/>
				<rect x="72.4" y="29.5" class="st2" width="18.1" height="0.5"/>
				<rect x="1.3" y="29.6" class="st2" width="18.6" height="0.5"/>
				<path class="st2" d="M58.4,57.9c-1.5-1.6-3.5-3-5.6-4c-4.2-1.9-9-2-13.6-0.1c-2.1,0.9-4.1,2.2-5.7,3.9l-0.4-0.3
					c1.7-1.8,3.7-3.2,5.9-4.1c4.7-1.9,9.6-1.9,14,0.1c2.2,1.1,4.2,2.5,5.8,4.2L58.4,57.9z"/>
				<path class="st2" d="M74.5,52.3c-5.1-5.8-14.5-8.6-28.7-8.6c-14.5,0-23.6,2.7-28.7,8.4l-0.4-0.3c5.2-5.9,14.5-8.6,29.1-8.6
					c14.4,0,23.9,2.9,29.1,8.8L74.5,52.3z"/>
				<path class="st2" d="M41,7.5c-2.6-0.8-6.1-2.7-7.9-5l0.4-0.3c1.8,2.2,5.1,4,7.7,4.8L41,7.5z"/>
				<path class="st2" d="M51.5,7.2l-0.2-0.5c2.8-0.9,5.3-2.5,7.1-4.6l0.4,0.3C56.9,4.7,54.4,6.3,51.5,7.2z"/>
				<path class="st2" d="M31.8,17.2c-6.2-2.1-12-5.5-15.1-8.9L17.1,8c3.1,3.3,8.8,6.7,14.9,8.7L31.8,17.2z"/>
				<path class="st2" d="M60.4,17l-0.2-0.5c5.8-1.9,11.1-5.1,14.3-8.8l0.4,0.3C71.6,11.9,66.3,15.1,60.4,17z"/>
				<path class="st2" d="M24.4,25.1c-7.9-1.9-14.8-4.6-18.9-7.3l0.3-0.4c4.1,2.7,10.9,5.4,18.7,7.3L24.4,25.1z"/>
				<path class="st2" d="M68,25l-0.1-0.5c7-1.7,13.5-4.4,18-7.4l0.3,0.4C81.6,20.6,75,23.3,68,25z"/>
				<path class="st2" d="M11.5,38.8c-0.8-2.5-1.8-6.3-1.8-8.8c0-16,16.2-29,36.1-29C65.7,1,82,14,82,30c-0.1,3.1-0.6,5.9-1.4,8.4
					l-0.5-0.2c0.8-2.5,1.3-5.2,1.4-8.2c0-15.7-16-28.5-35.7-28.5C26.1,1.5,10.1,14.3,10.1,30c0,2.4,1,6.1,1.8,8.6L11.5,38.8z"/>
				<path class="st2" d="M45.8,59c-14.3,0-26.4-5.8-32.3-15.6l0.4-0.3c5.8,9.6,17.7,15.4,31.9,15.4c14,0,25.8-5.8,31.7-15.5l0.4,0.3
					C72,53.2,60,59,45.8,59z"/>
				<path class="st2" d="M45.6,59c-9,0-16.6-5.9-20.2-15.7l0.5-0.2c3.6,9.6,11,15.3,19.8,15.3c8.6,0,16.2-6,19.8-15.5l0.5,0.2
					C62.2,53,54.4,59,45.6,59z"/>
				<path class="st2" d="M24.3,25L23.9,25C26.1,11,35.3,1,45.7,1c10.4,0,20,10.3,22.3,23.9l-0.5,0.1C65.3,11.5,55.9,1.5,45.7,1.5
					C35.5,1.5,26.5,11.4,24.3,25z"/>
				<path class="st2" d="M45.8,59c-3.6,0-6.7-5.9-8.2-15.8l0.5-0.1c1.5,9.5,4.5,15.4,7.8,15.4c3.3,0,6.4-6,7.9-15.4l0.5,0.1
					C52.6,53,49.4,59,45.8,59z"/>
				<path class="st2" d="M70.6,36.5H21.1L45.8,11L70.6,36.5z M22.3,36h47.1L45.8,11.8L22.3,36z"/>
				<g>
					<path class="st0" d="M45.8,43c-7.2,0-19.7-3.5-22-5.6c-1.6-1.5-3.2-1.1-4.5-1.1v-1.7h53v1.7c-1.2,0-2.9-0.4-4.5,1.1
						C65.5,39.5,53.1,43,45.8,43L45.8,43z"/>
					<path class="st2" d="M45.8,43.2c-7.2,0-19.8-3.5-22.2-5.7c-1.3-1.2-2.5-1.1-3.6-1.1c-0.2,0-0.5,0-0.7,0H19v-2.2h53.5v2.2h-0.2
						c-0.2,0-0.4,0-0.6,0c-1.1-0.1-2.4-0.1-3.7,1.1C65.6,39.8,53,43.2,45.8,43.2z M20.7,36c1,0,2.1,0.2,3.2,1.2
						c2.3,2.1,14.9,5.5,21.8,5.5c7.2,0,19.5-3.4,21.8-5.5c1.4-1.3,2.9-1.2,4-1.2c0.1,0,0.2,0,0.4,0v-1.2H19.5V36c0.1,0,0.3,0,0.4,0
						C20.2,36,20.5,36,20.7,36z"/>
				</g>
				<g>
					<path class="st0" d="M54.6,33.2h3v1.3H33.7v-1.3h3.1c-0.1-2.6-1-9.7,0.9-11.6c0.8-0.8,0.4-1.1,0.4-1.8c0-0.7,0-1.8,0.5-1.3
						c0.2,0.2,0.3,0.4,0.4,0.6c0.3-0.9,1.6-5,2.4-5.5c0.2,0.2,0.1,0.6,0,1.1c-0.1,0.6-0.2,6.1,0.4,7.1c0.6,1,0.6,2.4,0.1,4.1
						c-0.6,1.7-0.3,3.9,0.1,4.5c0.4,0.6,0.4,2.3,0.4,2.5h0.7c0-1.4-0.5-1.8-0.7-3.7c-0.2-1.4-0.2-2.8,0.2-4.2c0.4-1.6,0.2-1.8-0.1-4
						s-0.7-3.3-0.4-4.7c0.3-1.4,1-4.1,1.3-5c0,1.1,0.1,2.2,0.3,3.3c0.5-1.4-0.1-4.3,0.6-5.2c0.6-0.9,1-1.6,1.5-1.7
						c0,0.6,0,1.2-0.1,1.9c-0.1,1.9-0.1,5.5,0.4,6.5s1,3.8,1.4,5s1.1,3.5,0.5,4.3s-0.7,5.5,0.5,7.3h0.6c0,0-1.2-3.1-1-4.5
						s0.9-2.8,0.8-4.2s-1.6-4.3-1.6-5.7c-0.1-1.4-0.2-2.7-0.7-3.3c-0.3-0.5-0.5-1.1-0.5-1.7c0.2,0,0.4,0.1,0.6,0.1
						c-0.1-0.2-0.1-0.5,0-0.7s0.3-0.4,0.5-0.6c0,0,0.2-0.3,1.1,0.5c0.8,0.8-0.1,0.9,0.2,1.9c0.3,0.8,0.7,1.6,1.3,2.2
						c0,0,0.6-0.1,0.2-1.4c-0.4-1.3-0.8-1.3-0.3-1.5c0.8,0.8,1.5,1.6,2.1,2.6c0.6,1.1,0.1,2,1.1,3.4c0.9,1.4,2.5,4.2,2.1,5.8
						c-0.3,1.7-0.3,3.5-0.1,5.3C55,31,55.1,32.8,54.6,33.2z"/>
					<path class="st2" d="M57.9,34.8H33.5V33h3.1c0-0.4-0.1-0.8-0.1-1.4c-0.2-3.4-0.6-8.5,1.1-10.2c0.5-0.5,0.5-0.7,0.4-1.1
						c0-0.2-0.1-0.3-0.1-0.5c0-0.9,0-1.5,0.4-1.6c0.1,0,0.3-0.1,0.5,0.2c0.1,0.1,0.1,0.1,0.2,0.2c1.1-3.2,1.8-4.8,2.3-5.1l0.2-0.1
						l0.1,0.1c0.3,0.3,0.2,0.7,0.1,1.2l0,0.1c-0.1,0.7-0.2,6,0.4,6.9c0.4,0.7,0.6,1.7,0.4,2.9c0.2-0.9,0.1-1.3,0-2.4
						c0-0.3-0.1-0.7-0.2-1.1c-0.1-0.6-0.2-1.1-0.3-1.6c-0.2-1.2-0.4-2.1-0.1-3.2c0.3-1.4,1-4.1,1.3-5l0.5,0.1c0,0.3,0,0.6,0,1
						c0-0.1,0-0.1,0-0.2c0-1.2,0-2.3,0.4-2.8l0.2-0.3c0.5-0.8,0.9-1.4,1.4-1.5L46,7.4v0.3c0,0.6,0,1.2-0.1,1.9c-0.1,1-0.1,2.3,0,3.4
						h0.2c0.1,0,0.2,0,0.3,0c0-0.2,0-0.4,0.1-0.5c0.1-0.2,0.3-0.5,0.5-0.7h0c0,0,0.1-0.1,0.3-0.1c0.3,0,0.7,0.2,1.2,0.6
						c0.5,0.5,0.5,0.9,0.3,1.2c-0.1,0.2-0.2,0.4,0,0.8c0.3,0.8,0.7,1.5,1.1,1.9c0.1-0.1,0.1-0.4-0.1-1c-0.2-0.5-0.3-0.8-0.4-1
						c-0.1-0.2-0.2-0.4-0.1-0.5c0.1-0.2,0.2-0.2,0.4-0.3l0.2-0.1l0.1,0.1c0.7,0.7,1.5,1.5,2.1,2.6c0.3,0.5,0.3,1,0.4,1.5
						c0.1,0.6,0.2,1.2,0.7,1.9c1,1.5,2.6,4.3,2.1,6c-0.3,1.5-0.3,3.3-0.1,5.2c0.1,0.3,0.1,1,0.1,1.1c0,0.4-0.1,0.7-0.2,1h2.8V34.8z
						 M34,34.2h23.4v-0.8h-3.5l0.6-0.4c0.3-0.3,0.3-1.7,0.2-2l0,0l0-0.1c-0.2-2-0.2-3.8,0.1-5.4c0.4-1.6-1.3-4.5-2.1-5.6
						c-0.6-0.8-0.7-1.5-0.8-2.1c-0.1-0.4-0.1-0.8-0.3-1.3c-0.4-0.7-0.9-1.4-1.7-2.1c0.1,0.2,0.2,0.5,0.3,0.9c0.2,0.6,0.2,1.1,0,1.4
						c-0.2,0.2-0.4,0.3-0.4,0.3l-0.1,0l-0.1-0.1c-0.5-0.5-1-1.3-1.4-2.3c-0.2-0.5,0-0.9,0.1-1.1c0.1-0.3,0.1-0.4-0.2-0.7
						c-0.5-0.4-0.7-0.5-0.8-0.5c-0.2,0.2-0.4,0.4-0.4,0.5c-0.1,0.1-0.1,0.3,0,0.5l0.2,0.4h-0.4c-0.1,0-0.2,0-0.3-0.1
						c0,0.4,0.2,0.9,0.4,1.3c0.5,0.6,0.6,2,0.7,3.4c0,0.7,0.4,1.9,0.8,3c0.4,1.1,0.7,2,0.8,2.7c0.1,0.9-0.2,1.8-0.4,2.7
						c-0.1,0.5-0.3,1.1-0.4,1.6c-0.2,1.3,1,4.3,1,4.4l0.1,0.3h-1.1l-0.1-0.1c-1.3-1.9-1.1-6.7-0.5-7.6c0.3-0.3,0.4-1.3-0.5-4.1
						c-0.2-0.5-0.3-1.2-0.5-2c-0.3-1.1-0.6-2.4-0.9-3c-0.6-1.2-0.5-5.2-0.4-6.6c0.1-0.5,0.1-1,0.1-1.5c-0.2,0.2-0.5,0.6-0.8,1.1
						l-0.2,0.3c-0.3,0.4-0.3,1.5-0.3,2.5c0,1,0,1.9-0.2,2.6l-0.3,0.9l-0.2-0.9c-0.1-0.6-0.2-1.2-0.2-1.8c-0.3,1.1-0.7,2.6-0.9,3.5
						c-0.2,1-0.1,1.8,0.1,3c0.1,0.5,0.2,1,0.3,1.6c0.1,0.5,0.1,0.8,0.2,1.1c0.2,1.2,0.3,1.6-0.1,3c-0.4,1.2-0.4,2.6-0.2,4.1
						c0.1,0.9,0.3,1.5,0.4,1.9c0.2,0.6,0.3,1,0.3,1.8v0.2h-1.2v-0.2c0-0.8-0.1-2-0.4-2.4c-0.5-0.7-0.7-3-0.1-4.7
						c0.5-1.7,0.5-3-0.1-3.9c-0.7-1.1-0.5-6.7-0.4-7.3l0-0.1c0-0.1,0.1-0.3,0.1-0.4c-0.4,0.5-1,1.9-1.9,4.8L39,19.8l-0.3-0.5
						c-0.1-0.2-0.2-0.4-0.4-0.5c0,0,0,0,0,0c-0.1,0.2-0.1,0.8-0.1,1.1c0,0.2,0,0.3,0.1,0.4c0.1,0.4,0.2,0.8-0.5,1.5
						c-1.5,1.5-1.1,6.7-0.9,9.8c0,0.6,0.1,1.2,0.1,1.6l0,0.3H34V34.2z M42.6,32.6h0.2c0-0.5-0.1-0.9-0.3-1.4c-0.1-0.5-0.3-1.1-0.4-2
						C42,28.1,42,27,42.1,26c-0.6,1.6-0.3,3.7,0.1,4.3C42.6,30.8,42.6,32,42.6,32.6z M48.6,32.5h0.1c-0.3-0.9-1.1-3.1-0.9-4.3
						c0.1-0.6,0.2-1.1,0.4-1.6c0.2-0.9,0.5-1.7,0.4-2.5c0-0.6-0.4-1.6-0.8-2.6c-0.1-0.2-0.2-0.5-0.2-0.7c0,0.1,0.1,0.2,0.1,0.3
						c0.8,2.4,1,3.9,0.5,4.5C47.7,26.2,47.5,30.6,48.6,32.5z M38.4,18.6L38.4,18.6L38.4,18.6z M46,14.2c0.1,0.8,0.2,1.4,0.3,1.8
						c0.3,0.5,0.5,1.4,0.7,2.4c0,0,0,0,0,0c-0.1-1.3-0.2-2.6-0.6-3.1C46.2,14.9,46.1,14.5,46,14.2z M47.4,12.2
						C47.4,12.3,47.4,12.3,47.4,12.2C47.4,12.3,47.4,12.3,47.4,12.2z"/>
				</g>
				<g>
					<path class="st0" d="M35.3,5.1L39.6,5c-0.7,0.3-3.3,1.4-3.3,1.4l0.3,0.2c-0.4,0.1-0.8,0.3-1.2,0.6c-0.3,0.3-0.6,0.7-0.7,1.1
						L35.2,9l-2.5,1.2l0.9,0.4C32.8,11,32,11.4,31.2,12l1.4,0.9c-1.2,0-3.4,1.2-3.4,1.2l-0.2,0l0.4,0.7c-1.6-0.1-3.6,1.3-3.6,1.3
						L25.7,17c0,0,0-0.1-2.2,0.7l-0.1,1c-1.4-0.1-3.1,1.8-3.1,1.8c0.6,0.2,0.3,0.9,0.3,0.9c-1.2,0.5-1.4,0.6-1.4,0.6l0.1,0.7
						c-1.5,0.3-3.7,2.6-3.7,2.6l0.6,0.6c-0.9,0.5-1.8,1.1-2.6,1.9l0.6,0.4c-0.5,0.2-0.9,0.5-1.4,0.9l0.8,0.3
						c-0.7,0.4-2.7,2.5-3.5,3.1c-0.7,0.7-1.4,1.4-2,2.2L8,37.8C7.8,37.9,7.6,38,7.4,38c-0.2,0.1-0.6-0.5-0.6-0.5v-2.7
						c0,0-2.6-2.9-2-5.2L5.5,30c0.2-0.9,0.3-1.8,0.3-2.7h0.4c0,0,0.1-1.8,0.1-2.4c0.2,0,0.4,0,0.6,0c0,0,0.2-1.7,0.4-2.5l0.9-0.1
						c0.6-0.6,1.1-1.3,1.6-1.9l0.3,0.9c0,0,0.4-0.1,0.6-1.4l0.9-0.4l0.2-0.8l0.9,0.3c1.9-3.9,1.9-3.9,2-3.9s0.8,0.4,0.8,0.4
						c0.1-0.4,0.4-0.8,0.7-1.2c0.3-0.3,0.7-0.6,1.1-0.8c0,0,0.3,0.3,1,0c0-0.2,0.1-0.3,0.2-0.4c0.1-0.1,0.2-0.2,0.4-0.3
						c0.2,0,0.5,0,0.7,0c0,0,3.9-3.8,5.1-4.5C24.8,8.7,25,9,25.1,9.4c0.1,0.5,0.2-0.1,0.2-0.1s2.4-2.9,4.6-3.4l0.3,0.4
						c0,0,4.3-1.7,4.9-1.7L35.3,5.1z"/>
					<path class="st2" d="M7.4,38.3c-0.3,0-0.6-0.3-0.8-0.6l0-0.1v-2.7c-0.4-0.5-2.6-3.1-2-5.4l0.1-0.3l0.7,0.4
						c0.1-0.8,0.2-1.5,0.2-2.3V27H6C6,26.5,6,25.4,6,24.9v-0.2h0.6c0.1-0.5,0.2-1.7,0.4-2.3l0-0.2l1-0.1c0.4-0.4,0.7-0.8,1.1-1.2
						c0.2-0.2,0.3-0.4,0.5-0.6l0.3-0.3l0.3,0.9c0.1-0.2,0.2-0.5,0.3-0.9l0-0.1l0.9-0.4l0.2-0.9l0.9,0.3c1.9-3.8,1.9-3.8,2.1-3.8
						c0.1,0,0.1,0,0.7,0.3c0.2-0.3,0.4-0.7,0.6-1c0.4-0.4,0.8-0.7,1.2-0.9l0.2-0.1l0.1,0.1c0,0,0.2,0.1,0.6,0c0-0.2,0.2-0.3,0.3-0.4
						c0.1-0.1,0.2-0.2,0.5-0.3l0.1,0h0.6c0.6-0.5,3.9-3.8,5.1-4.5l0.3-0.2l0.1,0.3c0,0.2,0.1,0.3,0.2,0.5c0,0.1,0.1,0.2,0.1,0.2
						c0.5-0.6,2.6-2.9,4.6-3.3l0.2,0L30.3,6c1-0.4,4.2-1.6,4.8-1.6h0.2l0.2,0.5l4.1-0.1l0.1,0.5c-0.5,0.2-2.1,0.9-2.9,1.2l0.4,0.3
						l-0.5,0.1c-0.4,0.1-0.7,0.3-1.1,0.6C35.3,7.7,35.1,8,35,8.3l0.6,0.8l-2.3,1.1l0.9,0.4l-0.5,0.2c-0.7,0.3-1.4,0.7-2.1,1.2
						l1.8,1.2h-0.9c-1,0-2.8,0.9-3.2,1.1l0.5,0.8l-0.5,0C28.1,15,26.4,16,26,16.2l-0.1,1.3l-0.3-0.3c-0.2,0-0.6,0.2-1.9,0.6L23.6,19
						l-0.2,0c-0.9-0.1-2.1,0.9-2.7,1.5c0.1,0.1,0.1,0.1,0.2,0.2c0.2,0.4,0,0.8,0,0.8l0,0.1l-0.1,0c-0.7,0.3-1,0.4-1.2,0.5l0.1,0.7
						l-0.2,0c-1.2,0.2-2.9,1.8-3.4,2.4l0.7,0.7l-0.3,0.2c-0.9,0.5-1.7,1.1-2.3,1.6l0.7,0.5l-0.4,0.2c-0.4,0.1-0.7,0.3-1,0.6l0.9,0.3
						l-0.5,0.3c-0.4,0.2-1.2,1-1.9,1.7c-0.6,0.6-1.2,1.1-1.5,1.4c-0.6,0.6-1.3,1.3-1.9,2.1L8.2,38L8.1,38
						C7.9,38.1,7.7,38.2,7.4,38.3C7.4,38.3,7.4,38.3,7.4,38.3z M7.3,37.8L7.3,37.8c0.2,0,0.3,0,0.4-0.1l0.1-3l0-0.1
						c0.6-0.8,1.3-1.5,2-2.2c0.4-0.3,0.9-0.8,1.5-1.4c0.6-0.6,1.2-1.1,1.6-1.5l-0.8-0.3l0.3-0.3c0.4-0.3,0.7-0.5,1.1-0.7l-0.5-0.3
						l0.2-0.2c0.7-0.7,1.4-1.2,2.4-1.8l-0.5-0.5l0.2-0.2c0.1-0.1,2.1-2.1,3.6-2.6l-0.1-0.7l0.2-0.1c0,0,0.2-0.1,1.3-0.6
						c0-0.1,0-0.2,0-0.3c0,0-0.1-0.1-0.2-0.1l-0.4-0.1l0.3-0.3c0.1-0.1,1.6-1.8,3.1-1.9l0.1-0.9l0.1-0.1c1.2-0.4,1.8-0.6,2.1-0.7
						l0.1-0.8l0.1-0.1c0.1-0.1,1.8-1.2,3.3-1.3l-0.4-0.7h0.6c0.3-0.2,1.6-0.9,2.8-1.1L30.8,12l0.3-0.2c0.7-0.5,1.3-0.9,2-1.2
						l-0.9-0.4l2.7-1.3l-0.4-0.6l0-0.1c0.1-0.5,0.5-1,0.8-1.2c0.3-0.2,0.6-0.4,0.8-0.5l-0.3-0.2l0.4-0.2c0,0,1.1-0.5,2.1-0.9
						l-3.2,0.1l-0.2-0.5c-0.7,0.2-3.1,1.1-4.6,1.7l-0.2,0.1l-0.3-0.4c-1.9,0.5-3.9,2.9-4.3,3.2c0,0.2-0.1,0.4-0.3,0.4
						c-0.2,0-0.3-0.3-0.3-0.4c0-0.2-0.1-0.3-0.2-0.5c0-0.1-0.1-0.2-0.1-0.3c-1.4,1-4.8,4.3-4.8,4.3L19.7,13H19
						c-0.1,0.1-0.2,0.1-0.3,0.2c-0.1,0.1-0.1,0.1-0.1,0.2v0.2l-0.2,0.1c-0.6,0.2-0.9,0.2-1.1,0.1c-0.3,0.2-0.6,0.4-0.9,0.7
						c-0.3,0.3-0.5,0.7-0.6,1.1l-0.1,0.3l-0.3-0.2c-0.2-0.1-0.5-0.3-0.6-0.3c-0.2,0.3-0.6,1.3-1.8,3.7l-0.1,0.2L12,19l-0.2,0.7
						l-0.9,0.4c-0.2,1.2-0.6,1.4-0.8,1.5l-0.2,0.1l-0.2-0.7c-0.1,0.1-0.1,0.1-0.2,0.2c-0.4,0.5-0.7,0.9-1.2,1.3l-0.1,0.1l-0.8,0.1
						c-0.2,0.8-0.4,2.3-0.4,2.3l0,0.2H6.5c0,0.7-0.1,2.1-0.1,2.2l0,0.2H6c0,0.8-0.1,1.7-0.3,2.5l-0.1,0.3L5,30c-0.3,2.1,2,4.6,2,4.6
						L7,34.7v2.7C7.2,37.6,7.3,37.7,7.3,37.8z"/>
				</g>
				<g>
					<path class="st0" d="M56,5.1L51.7,5C52.5,5.4,55,6.5,55,6.5l-0.3,0.2c0.4,0.1,0.8,0.3,1.2,0.6c0.3,0.3,0.6,0.7,0.7,1.1L56.1,9
						l2.5,1.2l-0.9,0.4c0.9,0.4,1.7,0.8,2.4,1.3l-1.4,0.9c1.2,0,3.4,1.2,3.4,1.2l0.2,0.1l-0.4,0.7c1.6-0.1,3.6,1.3,3.6,1.3l0.1,0.9
						c0,0,0-0.1,2.2,0.7l0.1,1c1.4-0.1,3.1,1.8,3.1,1.8c-0.6,0.2-0.3,0.9-0.3,0.9C71.8,21.9,72,22,72,22v0.8
						c1.5,0.3,3.7,2.6,3.7,2.6L75.1,26c0.9,0.5,1.8,1.1,2.6,1.9L77,28.2c0.5,0.2,0.9,0.5,1.4,0.9l-0.8,0.3c0.7,0.4,2.7,2.5,3.5,3.1
						c0.7,0.7,1.4,1.4,2,2.2l0.1,3.1c0.2,0.1,0.4,0.2,0.6,0.2c0.2,0.1,0.6-0.5,0.6-0.5v-2.7c0,0,2.6-2.9,2-5.2L85.8,30
						c-0.2-0.9-0.3-1.8-0.3-2.7h-0.4c0,0-0.1-1.8-0.1-2.4c-0.2,0-0.4,0-0.6,0c0,0-0.3-1.7-0.4-2.5l-0.9-0.1
						c-0.6-0.6-1.1-1.3-1.6-1.9l-0.2,0.9c0,0-0.4-0.1-0.6-1.4l-0.9-0.4l-0.2-0.8L78.7,19c-1.9-3.9-1.9-3.9-2-3.9s-0.8,0.4-0.8,0.4
						c-0.1-0.4-0.4-0.8-0.7-1.2c-0.3-0.3-0.7-0.6-1.1-0.8c0,0-0.2,0.3-1,0c0-0.2-0.1-0.3-0.2-0.4c-0.1-0.1-0.2-0.2-0.4-0.3
						c-0.2,0-0.5,0-0.7,0c0,0-3.9-3.8-5.1-4.5c-0.2,0.4-0.4,0.7-0.5,1.1C66.1,9.9,66,9.3,66,9.3s-2.4-2.9-4.6-3.4l-0.3,0.4
						c0,0-4.3-1.7-5-1.7L56,5.1z"/>
					<path class="st2" d="M83.8,38.3C83.8,38.3,83.8,38.3,83.8,38.3c-0.3,0-0.6-0.1-0.8-0.2L83,38l-0.1-3.2
						c-0.6-0.8-1.3-1.4-1.9-2.1c-0.3-0.3-0.9-0.8-1.5-1.4c-0.7-0.7-1.6-1.5-1.9-1.7L77,29.4l0.9-0.3c-0.3-0.2-0.6-0.4-1-0.6
						l-0.6-0.2l0.9-0.4c-0.6-0.6-1.4-1.1-2.3-1.6l-0.3-0.2l0.7-0.7c-0.5-0.5-2.2-2.1-3.4-2.4l-0.2,0v-0.8c-0.2-0.1-0.5-0.2-1.2-0.5
						l-0.1,0l0-0.1c0,0-0.2-0.5,0-0.8c0-0.1,0.1-0.2,0.2-0.2c-0.5-0.5-1.7-1.6-2.7-1.5l-0.2,0l-0.1-1.1c-1.3-0.5-1.7-0.6-1.9-0.6
						l-0.3,0.3l-0.1-1.3c-0.4-0.3-2-1.3-3.3-1.2l-0.5,0l0.5-0.9c-0.3-0.2-2.2-1.2-3.3-1.2h-0.9l1.8-1.2c-0.7-0.4-1.4-0.8-2-1.1
						l-0.5-0.2l0.9-0.4l-2.3-1.1l0.6-0.7c-0.1-0.3-0.3-0.6-0.6-0.9C55.4,7.2,55,7,54.6,6.9l-0.5-0.1l0.4-0.3c-0.7-0.3-2.3-1-2.9-1.3
						l0.1-0.5l4.1,0.1l0.1-0.5h0.2c0.7,0,4,1.3,4.9,1.6l0.3-0.4l0.2,0c2,0.5,4.1,2.7,4.6,3.3c0.1-0.2,0.2-0.3,0.3-0.5
						c0-0.1,0.1-0.2,0.2-0.3l0.1-0.2l0.2,0.1c1.1,0.7,4.5,3.9,5.1,4.5l0.7,0c0.2,0.1,0.4,0.2,0.5,0.3c0.1,0.1,0.2,0.2,0.3,0.4
						c0.4,0.1,0.5,0.1,0.6,0l0.1-0.2l0.2,0.1c0.4,0.2,0.8,0.5,1.2,0.8c0.3,0.3,0.5,0.7,0.7,1c0.5-0.3,0.6-0.3,0.7-0.3
						c0.3,0,0.3,0,2.1,3.8l0.9-0.3l0.2,0.9l0.9,0.4l0,0.1c0.1,0.4,0.1,0.7,0.2,0.9l0.2-0.9l0.3,0.4c0.2,0.2,0.3,0.4,0.5,0.6
						c0.3,0.4,0.7,0.9,1.1,1.2l1,0.1l0,0.2c0.1,0.6,0.3,1.8,0.4,2.3h0.6v0.2c0,0.5,0.1,1.6,0.1,2.1h0.4v0.2c0,0.8,0.1,1.5,0.2,2.3
						l0.6-0.4l0.1,0.3c0.6,2.2-1.6,4.9-2,5.4v2.7l0,0.1C84.4,37.9,84.1,38.3,83.8,38.3z M83.4,37.6c0.1,0.1,0.2,0.1,0.4,0.1h0.1
						c0.1,0,0.2-0.2,0.3-0.3v-2.7l0.1-0.1c0,0,2.2-2.5,2-4.6l-0.6,0.4l-0.1-0.4c-0.2-0.8-0.3-1.7-0.3-2.5h-0.4l0-0.2
						c0-0.1-0.1-1.4-0.1-2.2h-0.6l0-0.2c0-0.1-0.3-1.5-0.4-2.3L83,22.5l-0.1-0.1c-0.4-0.4-0.8-0.9-1.2-1.3c0-0.1-0.1-0.1-0.1-0.2
						l-0.1,0.6l-0.2-0.1c-0.1,0-0.5-0.2-0.8-1.5l-0.9-0.4L79.4,19l-0.9,0.3l-0.1-0.2c-1.2-2.5-1.7-3.4-1.8-3.7
						c-0.1,0.1-0.4,0.2-0.6,0.3l-0.3,0.2l-0.1-0.3c-0.1-0.4-0.4-0.7-0.7-1.1c-0.2-0.2-0.6-0.5-0.9-0.7c-0.2,0.1-0.5,0.2-1.1-0.1
						l-0.2-0.1v-0.2c0-0.1,0-0.1-0.1-0.2c-0.1-0.1-0.2-0.2-0.3-0.2h-0.7L71.6,13c0,0-3.5-3.4-4.8-4.3c0,0,0,0,0,0.1
						c-0.1,0.3-0.3,0.5-0.3,0.7c0,0.1-0.1,0.4-0.3,0.4c0,0,0,0,0,0c-0.2,0-0.3-0.2-0.3-0.4c-0.3-0.4-2.4-2.7-4.3-3.2l-0.3,0.4
						L61,6.5c-1.5-0.6-3.9-1.5-4.7-1.7l-0.1,0.5l-3.3-0.1c1,0.5,2.2,1,2.2,1l0.4,0.2l-0.3,0.2c0.3,0.1,0.5,0.3,0.8,0.5
						c0.3,0.3,0.7,0.7,0.8,1.2l0,0.1l-0.4,0.5l2.7,1.3l-0.9,0.4c0.6,0.3,1.3,0.7,1.9,1.1l0.3,0.2l-1.1,0.7c1.2,0.3,2.7,1.1,2.8,1.1
						l0.4,0.2l-0.3,0.6c1.6,0.1,3.2,1.3,3.3,1.3l0.1,0.1l0.1,0.8c0.3,0.1,0.9,0.3,2.1,0.7l0.1,0.1l0.1,0.9c1.4,0.1,3,1.8,3.1,1.9
						l0.3,0.3l-0.4,0.1c-0.1,0-0.2,0.1-0.2,0.1c0,0.1,0,0.2,0,0.3c1,0.5,1.2,0.6,1.2,0.6l0.1,0.1v0.8c1.5,0.5,3.5,2.5,3.6,2.6
						l0.2,0.2l-0.5,0.5c1,0.6,1.7,1.1,2.4,1.8l0.3,0.3l-0.5,0.2c0.3,0.2,0.6,0.4,1,0.7l0.3,0.3l-0.8,0.3c0.4,0.3,1,0.9,1.6,1.5
						c0.6,0.6,1.2,1.1,1.5,1.4c0.7,0.7,1.4,1.4,2.1,2.3l0,0.1L83.4,37.6z"/>
				</g>
				<path class="st2" d="M45.8,59C21,59,0.9,46,0.9,30S21,1,45.8,1c12,0,23.3,3,31.7,8.4c8.5,5.4,13.2,12.7,13.2,20.6
					C90.8,46,70.6,59,45.8,59z M45.8,1.5C21.3,1.5,1.4,14.3,1.4,30s19.9,28.5,44.4,28.5s44.5-12.9,44.5-28.6
					C90.2,14.2,70.3,1.5,45.8,1.5z"/>
				<path class="st3" d="M112.3,48.1h-2.1V14.6h2.1V48.1z"/>
				<path class="st3" d="M127.3,37.1l-4.5,11h-2.2l14.1-34.6l14,34.6h-2.2l-4.5-11H127.3z M134.7,18.9l-6.6,16.2h13.2L134.7,18.9z"
					/>
				<path class="st3" d="M157,14.6h6.1c4.9,0,8.8,0.8,12.5,4.2c1.7,1.6,3,3.5,3.9,5.6s1.4,4.4,1.4,6.7s-0.4,4.6-1.3,6.8
					c-0.9,2.1-2.2,4.1-3.9,5.7C172,47.2,168,48,163,48h-6V14.6z M163.1,46.1c4.4,0,8.1-0.9,11.3-4c1.4-1.4,2.6-3.2,3.4-5
					c0.8-1.9,1.1-3.9,1.1-5.9s-0.5-4-1.3-5.9s-2-3.5-3.5-4.9c-3.2-2.9-6.7-3.6-10.9-3.6h-3.9v29.5h3.8V46.1z"/>
				<path class="st3" d="M207.2,48.1h-2.4l-11-15.9h-1.1v15.9h-2.1V14.6h4.2c2.7,0,5.4,0,7.7,1.7c2.4,1.7,3.4,4.3,3.4,7.2
					c0,5.8-4.1,8.8-9.6,8.8L207.2,48.1z M195.4,30.2c2.1,0,4.2-0.1,5.9-1.6c0.8-0.6,1.4-1.5,1.8-2.4c0.4-0.9,0.6-1.9,0.6-2.9
					c0-2.5-1.2-5-3.6-6c-1.8-0.8-4.1-0.8-6-0.8h-1.4v13.6L195.4,30.2L195.4,30.2z"/>
				<path class="st3" d="M3.8,81.4H2.9V66.8h0.9C3.8,66.8,3.8,81.4,3.8,81.4z"/>
				<path class="st3" d="M8.3,73.8L8.3,73.8c0.3-0.5,0.7-0.9,1.1-1.2c0.5-0.3,1-0.4,1.6-0.4c2.3,0,3,1.4,3,3.7v5.4h-0.9V76
					c0-1.6-0.2-2.9-2.2-2.9c-2.3,0-2.6,2.1-2.6,3.9v4.4H7.4v-9h0.9V73.8z"/>
				<path class="st3" d="M18.5,81.4h-0.9v-8.1h-1v-0.8h1v-3.2h0.9v3.2h1.6v0.8h-1.6V81.4z"/>
				<path class="st3" d="M22.2,77c0,0.5,0,1,0.2,1.4c0.2,0.5,0.4,0.9,0.8,1.2c0.3,0.4,0.8,0.6,1.2,0.8c0.5,0.2,0.9,0.3,1.4,0.3
					c0.7,0,1.3-0.2,1.9-0.6s1-0.9,1.3-1.5l0.7,0.4c-0.4,0.7-0.9,1.4-1.7,1.8c-0.7,0.4-1.5,0.6-2.4,0.6c-2.7,0-4.3-2.1-4.3-4.7
					c0-2.5,1.7-4.6,4.3-4.6c2.7,0,4.3,2.2,4.3,4.7h-7.7V77z M29.1,76.1c-0.1-0.9-0.5-1.6-1.1-2.2S26.5,73,25.7,73s-1.7,0.3-2.3,0.9
					c-0.6,0.6-1,1.4-1.1,2.2H29.1z"/>
				<path class="st3" d="M33.6,73.6L33.6,73.6c0.2-0.4,0.4-0.7,0.8-1c0.3-0.2,0.8-0.4,1.2-0.4c0.3,0,0.7,0.1,0.9,0.2L36,73.2
					c-0.2-0.1-0.4-0.2-0.6-0.2c-2,0-1.9,2.4-1.9,3.8v4.6h-0.9v-9h0.9L33.6,73.6z"/>
				<path class="st3" d="M39.7,73.8L39.7,73.8c0.3-0.5,0.7-0.9,1.1-1.2c0.5-0.3,1-0.4,1.6-0.4c2.3,0,3,1.4,3,3.7v5.4h-0.9V76
					c0-1.6-0.2-2.9-2.2-2.9c-2.3,0-2.6,2.1-2.6,3.9v4.4h-0.9v-9h0.9C39.7,72.4,39.7,73.8,39.7,73.8z"/>
				<path class="st3" d="M56.8,81.4H56v-1.6l0,0c-0.4,0.6-0.9,1-1.5,1.3s-1.3,0.5-1.9,0.5c-2.7,0-4.4-2.1-4.4-4.7s1.7-4.6,4.4-4.6
					c0.7,0,1.3,0.1,1.9,0.4c0.6,0.3,1.1,0.8,1.5,1.3l0,0v-1.6h0.9v9H56.8z M48.9,76.8c0,2.1,1.4,3.9,3.5,3.9c2.3,0,3.5-1.9,3.5-4
					c0-0.5,0-1-0.2-1.4c-0.2-0.5-0.4-0.9-0.8-1.2c-0.3-0.3-0.7-0.6-1.2-0.8c-0.4-0.2-0.9-0.3-1.4-0.3C50.4,73,48.9,74.9,48.9,76.8z"
					/>
				<path class="st3" d="M61.4,81.4h-0.9v-8.1h-1v-0.8h1v-3.2h0.9v3.2H63v0.8h-1.6V81.4z"/>
				<path class="st3" d="M66.6,69.4c0,0.2,0,0.3-0.1,0.4s-0.2,0.2-0.4,0.3c-0.1,0.1-0.3,0.1-0.5,0c-0.2,0-0.3-0.1-0.4-0.2
					S65,69.6,65,69.5c0-0.2,0-0.3,0-0.5c0.1-0.1,0.2-0.3,0.3-0.4c0.1-0.1,0.3-0.1,0.4-0.1c0.2,0,0.4,0.1,0.6,0.2
					C66.5,69,66.6,69.2,66.6,69.4z M66.3,81.4h-0.9v-9h0.9V81.4z"/>
				<path class="st3" d="M78.7,76.9c0,0.9-0.3,1.8-0.8,2.6c-0.5,0.8-1.2,1.4-2.1,1.7c-0.9,0.4-1.8,0.5-2.7,0.3
					c-0.9-0.2-1.7-0.6-2.4-1.3c-0.7-0.7-1.1-1.5-1.3-2.4c-0.2-0.9-0.1-1.8,0.3-2.7c0.4-0.9,0.9-1.6,1.7-2.1c0.8-0.5,1.7-0.8,2.6-0.8
					c0.6,0,1.2,0.1,1.8,0.3c0.6,0.2,1.1,0.6,1.5,1s0.8,1,1,1.5C78.6,75.7,78.7,76.3,78.7,76.9z M70.2,76.9c0,0.8,0.3,1.5,0.7,2.1
					c0.4,0.6,1,1.1,1.7,1.4s1.5,0.3,2.2,0.2c0.7-0.2,1.4-0.5,1.9-1.1c0.5-0.5,0.9-1.2,1-2c0.1-0.7,0-1.5-0.3-2.2s-0.8-1.3-1.5-1.7
					c-0.6-0.4-1.4-0.6-2.1-0.6c-0.5,0-1,0.1-1.5,0.3c-0.5,0.2-0.9,0.5-1.2,0.9c-0.3,0.4-0.6,0.8-0.8,1.3
					C70.3,75.9,70.2,76.4,70.2,76.9L70.2,76.9z"/>
				<path class="st3" d="M82.3,73.8L82.3,73.8c0.3-0.5,0.7-0.9,1.1-1.2c0.5-0.3,1-0.4,1.6-0.4c2.3,0,3,1.4,3,3.7v5.4h-0.9V76
					c0-1.6-0.2-2.9-2.2-2.9c-2.3,0-2.6,2.1-2.6,3.9v4.4h-0.9v-9h0.9V73.8z"/>
				<path class="st3" d="M99.4,81.4h-0.9v-1.6c-0.4,0.6-0.9,1-1.5,1.3s-1.3,0.5-1.9,0.5c-2.7,0-4.4-2.1-4.4-4.7s1.7-4.6,4.4-4.6
					c0.7,0,1.3,0.1,1.9,0.4s1.1,0.8,1.5,1.3v-1.6h0.9V81.4z M91.5,76.8c0,2.1,1.4,3.9,3.5,3.9c2.3,0,3.5-1.9,3.5-4
					c0-0.5,0-1-0.2-1.4c-0.2-0.5-0.4-0.9-0.8-1.2c-0.3-0.3-0.7-0.6-1.2-0.8C95.9,73.1,95.5,73,95,73C92.9,73,91.5,74.9,91.5,76.8z"
					/>
				<path class="st3" d="M103.8,81.4H103v-16h0.9L103.8,81.4L103.8,81.4z"/>
				<path class="st3" d="M115.5,76.6l-2,4.8h-1l6.1-15.1l6.1,15.1h-1l-2-4.8H115.5z M118.8,68.6l-2.9,7.1h5.7L118.8,68.6z"/>
				<path class="st3" d="M130.8,74c-0.1-0.3-0.4-0.6-0.6-0.7c-0.3-0.2-0.6-0.3-0.9-0.3c-0.4,0-0.8,0.1-1,0.4c-0.3,0.3-0.5,0.6-0.5,1
					c0,2.2,4.4,1.1,4.4,4.3c0,0.4-0.1,0.7-0.2,1.1c-0.1,0.3-0.4,0.7-0.6,0.9c-0.3,0.3-0.6,0.5-0.9,0.6c-0.4,0.1-0.7,0.2-1.1,0.2
					c-0.7,0-1.4-0.2-2-0.6s-1-1-1.1-1.7l0.9-0.3c0.1,0.5,0.4,1,0.8,1.3c0.4,0.3,0.9,0.5,1.4,0.5c0.3,0,0.5,0,0.8-0.2
					s0.5-0.2,0.7-0.4s0.3-0.4,0.4-0.7s0.2-0.5,0.1-0.8c0-1.1-0.9-1.5-1.7-1.8c-1.2-0.4-2.6-1-2.6-2.5c0-0.3,0.1-0.6,0.2-0.9
					s0.3-0.5,0.5-0.7s0.5-0.4,0.8-0.5s0.6-0.2,0.9-0.1c0.5,0,0.9,0.2,1.3,0.4c0.4,0.3,0.7,0.6,1,1L130.8,74z"/>
				<path class="st3" d="M138.7,74c-0.1-0.3-0.4-0.6-0.6-0.7c-0.3-0.2-0.6-0.3-0.9-0.3c-0.4,0-0.8,0.1-1,0.4c-0.3,0.3-0.5,0.6-0.5,1
					c0,2.2,4.4,1.1,4.4,4.3c0,0.4-0.1,0.7-0.2,1.1c-0.1,0.3-0.4,0.7-0.6,0.9c-0.3,0.3-0.6,0.5-0.9,0.6c-0.4,0.1-0.7,0.2-1.1,0.2
					c-0.7,0-1.4-0.2-2-0.6s-1-1-1.1-1.7l0.9-0.3c0.1,0.5,0.4,1,0.8,1.3c0.4,0.3,0.9,0.5,1.4,0.5c0.3,0,0.5,0,0.8-0.2
					s0.5-0.2,0.7-0.4s0.3-0.4,0.4-0.7c0.1-0.2,0.2-0.5,0.1-0.8c0-1.1-0.9-1.5-1.7-1.8c-1.2-0.4-2.6-1-2.6-2.5c0-0.3,0.1-0.6,0.2-0.9
					c0.1-0.3,0.3-0.5,0.5-0.7s0.5-0.4,0.8-0.5s0.6-0.2,0.9-0.1c0.5,0,0.9,0.2,1.3,0.4c0.4,0.3,0.7,0.6,0.9,1L138.7,74z"/>
				<path class="st3" d="M151.3,76.9c0,0.9-0.3,1.8-0.8,2.6c-0.5,0.8-1.2,1.4-2.1,1.7c-0.9,0.4-1.8,0.5-2.7,0.3s-1.7-0.6-2.4-1.3
					c-0.7-0.7-1.1-1.5-1.3-2.4s-0.1-1.8,0.3-2.7c0.3-0.9,0.9-1.6,1.7-2.1s1.7-0.8,2.6-0.8c0.6,0,1.2,0.1,1.8,0.3
					c0.6,0.2,1.1,0.6,1.5,1s0.8,1,1,1.5C151.2,75.7,151.3,76.3,151.3,76.9z M142.8,76.9c0,0.8,0.3,1.5,0.7,2.1s1,1.1,1.7,1.4
					s1.5,0.3,2.2,0.2c0.7-0.2,1.4-0.5,1.9-1.1c0.5-0.5,0.9-1.2,1-2c0.1-0.7,0-1.5-0.3-2.2s-0.8-1.3-1.5-1.7
					c-0.6-0.4-1.4-0.6-2.1-0.6c-0.5,0-1,0.1-1.5,0.3c-0.5,0.2-0.9,0.5-1.2,0.9s-0.6,0.8-0.8,1.3C142.9,75.9,142.8,76.4,142.8,76.9
					L142.8,76.9z"/>
				<path class="st3" d="M160.9,74.5c-0.4-0.5-0.9-0.8-1.4-1.1c-0.5-0.3-1.1-0.4-1.7-0.4c-1,0.1-1.9,0.5-2.6,1.2
					c-0.7,0.7-1.1,1.7-1.1,2.7s0.4,1.9,1.1,2.7c0.7,0.7,1.6,1.1,2.6,1.2c0.6,0,1.3-0.2,1.8-0.4c0.6-0.3,1.1-0.7,1.5-1.2v1.2
					c-0.9,0.8-2.1,1.2-3.3,1.2s-2.4-0.5-3.3-1.4c-0.9-0.9-1.4-2.1-1.4-3.3s0.5-2.4,1.4-3.3s2.1-1.4,3.3-1.4c1.1,0,2.3,0.4,3.1,1.1
					L160.9,74.5L160.9,74.5z"/>
				<path class="st3" d="M165.5,69.4c0,0.1,0,0.2,0,0.3c0,0.1-0.1,0.2-0.2,0.3c-0.1,0.1-0.2,0.1-0.3,0.2c-0.1,0-0.2,0.1-0.3,0.1
					s-0.2,0-0.3-0.1c-0.1,0-0.2-0.1-0.3-0.2s-0.1-0.2-0.2-0.3c0-0.1,0-0.2,0-0.3c0-0.2,0.1-0.4,0.3-0.5c0.1-0.1,0.3-0.2,0.5-0.2
					s0.4,0.1,0.5,0.2C165.4,69,165.5,69.2,165.5,69.4L165.5,69.4z M165.1,81.4h-0.9v-9h0.9V81.4z"/>
				<path class="st3" d="M176.9,81.4H176v-1.6c-0.4,0.6-0.9,1-1.5,1.3s-1.3,0.5-1.9,0.5c-2.7,0-4.4-2.1-4.4-4.7s1.7-4.6,4.4-4.6
					c0.7,0,1.3,0.1,1.9,0.4c0.6,0.3,1.1,0.8,1.5,1.3l0,0v-1.6h0.9V81.4z M169,76.8c0,2.1,1.4,3.9,3.5,3.9c2.3,0,3.5-1.9,3.5-4
					c0-0.5,0-1-0.2-1.4c-0.2-0.5-0.4-0.9-0.8-1.2c-0.3-0.3-0.7-0.6-1.2-0.8c-0.5-0.2-0.9-0.3-1.4-0.3C170.4,73,169,74.9,169,76.8z"
					/>
				<path class="st3" d="M181.5,81.4h-0.9v-8.1h-1v-0.8h1v-3.2h0.9v3.2h1.6v0.8h-1.6V81.4z"/>
				<path class="st3" d="M186.7,69.4c0,0.1,0,0.2,0,0.3c0,0.1-0.1,0.2-0.2,0.3c-0.1,0.1-0.2,0.1-0.3,0.2c-0.1,0-0.2,0.1-0.3,0.1
					s-0.2,0-0.3-0.1c-0.1,0-0.2-0.1-0.3-0.2s-0.1-0.2-0.2-0.3c0-0.1,0-0.2,0-0.3c0-0.2,0.1-0.4,0.3-0.5c0.1-0.1,0.3-0.2,0.5-0.2
					s0.4,0.1,0.5,0.2C186.6,69,186.7,69.2,186.7,69.4z M186.3,81.4h-0.9v-9h0.9V81.4z"/>
				<path class="st3" d="M198.8,76.9c0,0.6-0.1,1.2-0.3,1.8c-0.2,0.6-0.6,1.1-1,1.5s-1,0.8-1.5,1c-0.6,0.2-1.2,0.3-1.8,0.3
					c-1.2,0-2.4-0.5-3.3-1.4c-0.9-0.9-1.4-2.1-1.4-3.3c0-1.2,0.5-2.4,1.4-3.3s2.1-1.4,3.3-1.4c0.6,0,1.2,0.1,1.8,0.3
					c0.6,0.2,1.1,0.6,1.5,1s0.8,1,1,1.5C198.7,75.7,198.8,76.3,198.8,76.9L198.8,76.9z M190.3,76.9c0,0.8,0.3,1.5,0.7,2.1
					s1,1.1,1.7,1.4s1.5,0.3,2.2,0.2c0.7-0.2,1.4-0.5,1.9-1.1c0.5-0.5,0.9-1.2,1-2c0.1-0.7,0-1.5-0.3-2.2s-0.8-1.3-1.5-1.7
					c-0.6-0.4-1.4-0.6-2.1-0.6c-1,0-2,0.5-2.7,1.2C190.6,74.9,190.3,75.9,190.3,76.9L190.3,76.9z"/>
				<path class="st3" d="M202.3,73.8L202.3,73.8c0.3-0.5,0.7-0.9,1.1-1.2c0.5-0.3,1-0.4,1.6-0.4c2.3,0,3,1.4,3,3.7v5.4h-0.9V76
					c0-1.6-0.2-2.9-2.2-2.9c-2.3,0-2.6,2.1-2.6,3.9v4.4h-0.9v-9h0.9L202.3,73.8z"/>
				<path class="st3" d="M28.1,101.8h-0.9v-8.1h-1v-0.8h1v-4c-0.1-0.7,0.1-1.5,0.4-2.2c0.2-0.3,0.5-0.6,0.9-0.8
					c0.4-0.2,0.7-0.3,1.1-0.3c0.3,0,0.5,0,0.8,0.1v0.8c-0.2-0.1-0.5-0.1-0.7-0.1c-1.5,0-1.5,1.5-1.5,2.6v3.8h2.3v0.8h-2.3
					L28.1,101.8L28.1,101.8z"/>
				<path class="st3" d="M41,97.3c0,0.9-0.3,1.8-0.8,2.6c-0.5,0.8-1.2,1.4-2.1,1.7c-0.9,0.4-1.8,0.5-2.7,0.3s-1.7-0.6-2.4-1.3
					c-0.7-0.7-1.1-1.5-1.3-2.4c-0.2-0.9-0.1-1.8,0.3-2.7c0.4-0.9,0.9-1.6,1.7-2.1s1.7-0.8,2.6-0.8c0.6,0,1.2,0.1,1.8,0.3
					c0.6,0.2,1.1,0.6,1.5,1s0.8,1,1,1.5C40.9,96.1,41,96.7,41,97.3z M32.5,97.3c0,0.8,0.2,1.5,0.7,2.1c0.4,0.6,1,1.1,1.7,1.4
					s1.5,0.3,2.2,0.2c0.7-0.2,1.4-0.5,1.9-1.1c0.5-0.5,0.9-1.2,1-2c0.1-0.7,0-1.5-0.3-2.2C39.5,95,39,94.4,38.4,94s-1.4-0.6-2.1-0.6
					c-0.5,0-1,0.1-1.5,0.3c-0.5,0.2-0.9,0.5-1.2,0.9s-0.6,0.8-0.8,1.3C32.6,96.3,32.5,96.8,32.5,97.3L32.5,97.3z"/>
				<path class="st3" d="M44.6,94L44.6,94c0.2-0.4,0.4-0.7,0.8-1s0.8-0.4,1.2-0.4c0.3,0,0.7,0.1,0.9,0.2L47,93.6
					c-0.2-0.1-0.4-0.2-0.6-0.2c-2,0-1.9,2.4-1.9,3.8v4.6h-0.9v-9h0.9L44.6,94z"/>
				<path class="st3" d="M56.4,87.2H59c2.1,0,3.8,0.4,5.4,1.9c0.7,0.7,1.3,1.5,1.7,2.5c0.4,0.9,0.6,1.9,0.6,2.9s-0.2,2-0.6,2.9
					s-1,1.8-1.7,2.5c-1.6,1.6-3.3,1.9-5.5,1.9h-2.6L56.4,87.2L56.4,87.2z M59,100.9c1.9,0,3.5-0.4,4.9-1.8c0.6-0.6,1.1-1.4,1.5-2.2
					c0.3-0.8,0.5-1.7,0.5-2.6s-0.2-1.8-0.6-2.6c-0.4-0.8-0.9-1.5-1.5-2.1c-1.4-1.2-2.9-1.6-4.7-1.6h-1.7v12.9
					C57.4,100.9,59,100.9,59,100.9z"/>
				<path class="st3" d="M69.6,97.4c0,0.5,0,1,0.2,1.4c0.2,0.5,0.4,0.9,0.8,1.2c0.3,0.4,0.8,0.6,1.2,0.8c0.5,0.2,0.9,0.3,1.4,0.3
					c0.7,0,1.3-0.2,1.9-0.6s1-0.9,1.3-1.5l0.7,0.4c-0.4,0.7-0.9,1.4-1.7,1.8c-0.7,0.4-1.5,0.6-2.4,0.6c-2.7,0-4.3-2.2-4.3-4.7
					s1.7-4.6,4.3-4.6c2.7,0,4.3,2.2,4.3,4.7h-7.7V97.4z M76.5,96.6c-0.1-0.9-0.5-1.6-1.1-2.2s-1.5-0.9-2.3-0.9
					c-0.9,0-1.7,0.3-2.3,0.9c-0.6,0.6-1,1.4-1.1,2.2H76.5z"/>
				<path class="st3" d="M80.9,94.2L80.9,94.2c0.3-0.5,0.7-0.9,1.1-1.2c0.5-0.3,1-0.4,1.6-0.4c2.3,0,3,1.4,3,3.7v5.4h-0.9v-5.4
					c0-1.6-0.2-2.9-2.2-2.9c-2.3,0-2.6,2.1-2.6,3.9v4.4H80v-9h0.9V94.2z"/>
				<path class="st3" d="M91.2,101.8h-0.9v-8.1h-1v-0.8h1v-3.2h0.9v3.2h1.6v0.8h-1.6V101.8z"/>
				<path class="st3" d="M102.7,101.8h-0.9v-1.6l0,0c-0.4,0.6-0.9,1-1.5,1.3S99,102,98.4,102c-2.7,0-4.4-2.1-4.4-4.7
					s1.7-4.6,4.4-4.6c0.7,0,1.3,0.1,1.9,0.4s1.1,0.8,1.5,1.3l0,0v-1.6h0.9V101.8z M94.8,97.3c0,2.1,1.4,3.9,3.5,3.9
					c2.3,0,3.5-1.9,3.5-4c0-0.5,0-1-0.2-1.4c-0.2-0.5-0.4-0.9-0.8-1.2c-0.3-0.3-0.7-0.6-1.2-0.8c-0.4-0.2-0.9-0.3-1.4-0.3
					C96.2,93.5,94.8,95.3,94.8,97.3L94.8,97.3z"/>
				<path class="st3" d="M107.2,101.8h-0.9v-16h0.9V101.8z"/>
				<path class="st3" d="M124.7,101.8h-1.1l-4.8-6.9h-0.5v6.9h-0.9V87.2h1.9c1.2,0,2.4,0,3.3,0.7c0.5,0.4,0.9,0.8,1.1,1.4
					c0.3,0.5,0.4,1.2,0.3,1.8c0,2.5-1.8,3.9-4.2,3.8L124.7,101.8z M119.5,94c0.9,0.1,1.8-0.1,2.6-0.7c0.3-0.3,0.6-0.6,0.8-1
					c0.2-0.4,0.3-0.8,0.3-1.3s-0.1-1.1-0.4-1.6s-0.7-0.8-1.2-1.1c-0.8-0.3-1.7-0.4-2.6-0.3h-0.6v6H119.5z"/>
				<path class="st3" d="M127.4,97.4c0,0.5,0,1,0.2,1.4c0.2,0.5,0.4,0.9,0.8,1.2c0.3,0.4,0.8,0.6,1.2,0.8c0.5,0.2,0.9,0.3,1.4,0.3
					c0.7,0,1.3-0.2,1.9-0.6c0.6-0.4,1-0.9,1.3-1.5l0.7,0.4c-0.4,0.7-0.9,1.4-1.7,1.8c-0.7,0.4-1.5,0.6-2.4,0.6
					c-2.7,0-4.3-2.2-4.3-4.7s1.7-4.6,4.3-4.6c2.7,0,4.3,2.2,4.3,4.7h-7.7V97.4z M134.3,96.6c-0.1-0.9-0.5-1.6-1.1-2.2
					s-1.5-0.9-2.3-0.9c-0.9,0-1.7,0.3-2.3,0.9c-0.6,0.6-1,1.4-1.1,2.2H134.3z"/>
				<path class="st3" d="M141.7,94.5c-0.1-0.3-0.4-0.6-0.6-0.7s-0.6-0.3-0.9-0.3c-0.4,0-0.8,0.1-1,0.4c-0.3,0.3-0.5,0.6-0.5,1
					c0,2.2,4.4,1.1,4.4,4.3c0,0.4-0.1,0.7-0.2,1.1c-0.1,0.3-0.4,0.7-0.6,0.9c-0.3,0.3-0.6,0.5-0.9,0.6c-0.4,0.1-0.7,0.2-1.1,0.2
					c-0.7,0-1.4-0.2-2-0.6s-1-1-1.1-1.7l0.9-0.3c0.1,0.5,0.4,1,0.8,1.3c0.4,0.3,0.9,0.5,1.4,0.5c0.3,0,0.5,0,0.8-0.1
					c0.2-0.1,0.5-0.2,0.7-0.4c0.2-0.2,0.3-0.4,0.4-0.7c0.1-0.2,0.2-0.5,0.2-0.8c0-1.1-0.9-1.5-1.7-1.8c-1.2-0.4-2.6-1-2.6-2.5
					c0-0.3,0.1-0.6,0.2-0.9c0.1-0.3,0.3-0.5,0.5-0.8c0.2-0.2,0.5-0.4,0.8-0.5s0.6-0.1,0.9-0.1c0.5,0,0.9,0.2,1.3,0.4
					c0.4,0.3,0.7,0.6,1,1L141.7,94.5z"/>
				<path class="st3" d="M145.8,97.4c0,0.5,0,1,0.2,1.4s0.4,0.9,0.8,1.2c0.3,0.4,0.8,0.6,1.2,0.8c0.5,0.2,0.9,0.3,1.4,0.3
					c0.7,0,1.3-0.2,1.9-0.6c0.6-0.4,1-0.9,1.3-1.5l0.7,0.4c-0.4,0.7-0.9,1.4-1.7,1.8c-0.7,0.4-1.5,0.6-2.4,0.6
					c-2.7,0-4.3-2.2-4.3-4.7s1.7-4.6,4.3-4.6c2.7,0,4.3,2.2,4.3,4.7h-7.7V97.4z M152.7,96.6c-0.1-0.9-0.5-1.6-1.1-2.2
					s-1.5-0.9-2.3-0.9s-1.7,0.3-2.3,0.9s-1,1.4-1.1,2.2H152.7z"/>
				<path class="st3" d="M164.2,101.8h-0.9v-1.6l0,0c-0.4,0.6-0.9,1-1.5,1.3s-1.3,0.5-1.9,0.5c-2.7,0-4.4-2.1-4.4-4.7
					s1.7-4.6,4.4-4.6c0.7,0,1.3,0.1,1.9,0.4c0.6,0.3,1.1,0.8,1.5,1.3l0,0v-1.6h0.9V101.8z M156.3,97.3c0,2.1,1.4,3.9,3.5,3.9
					c2.3,0,3.5-1.9,3.5-4c0-0.5,0-1-0.2-1.4c-0.2-0.5-0.4-0.9-0.8-1.2c-0.3-0.3-0.7-0.6-1.2-0.8c-0.4-0.2-0.9-0.3-1.4-0.3
					C157.7,93.5,156.3,95.3,156.3,97.3L156.3,97.3z"/>
				<path class="st3" d="M168.6,94L168.6,94c0.2-0.4,0.4-0.7,0.8-1c0.3-0.2,0.8-0.4,1.2-0.4c0.3,0,0.7,0.1,1,0.2l-0.5,0.8
					c-0.2-0.1-0.4-0.2-0.6-0.2c-2,0-1.9,2.4-1.9,3.8v4.6h-0.9v-9h0.9V94z"/>
				<path class="st3" d="M180.6,94.9c-0.4-0.5-0.9-0.8-1.4-1.1c-0.5-0.3-1.1-0.4-1.7-0.4c-1,0-1.9,0.5-2.6,1.2
					c-0.7,0.7-1.1,1.7-1.1,2.7s0.4,2,1.1,2.7c0.7,0.7,1.6,1.1,2.6,1.2c0.6,0,1.3-0.2,1.8-0.4c0.6-0.3,1.1-0.7,1.5-1.2v1.2
					c-0.9,0.8-2.1,1.2-3.3,1.2s-2.4-0.6-3.2-1.4c-0.8-0.9-1.3-2-1.3-3.2s0.5-2.4,1.3-3.2c0.8-0.9,2-1.4,3.2-1.4
					c1.1,0,2.2,0.4,3.1,1.1L180.6,94.9z"/>
				<path class="st3" d="M184.5,85.8v8.4l0,0c0.2-0.5,0.6-0.9,1.1-1.2c0.5-0.3,1-0.4,1.6-0.4c2.3,0,3,1.4,3,3.7v5.4h-0.9v-5.4
					c0-1.6-0.2-2.9-2.2-2.9c-2.3,0-2.6,2.1-2.6,3.9v4.4h-0.9v-16L184.5,85.8L184.5,85.8z"/>
				<path class="st2" d="M7,35.1l-0.5-0.1c0.1-0.2,5.8-20.4,33-30.1l0.2,0.5C12.8,14.9,7.1,34.9,7,35.1z"/>
				<path class="st2" d="M84.7,34.9l-0.5-0.1c0.1-0.8-1.8-4.4-5.4-9C71.8,16.5,61,6.3,52.3,5.5l0-0.5c8.9,0.7,19.8,11.1,27,20.5
					C82.1,29.2,85,33.7,84.7,34.9z"/>
			</g>
		</g>
	</g>
</g>
</svg>
